<?xml version="1.0" standalone="no"?><!DOCTYPE svg PUBLIC "-//W3C//DTD SVG 1.1//EN" "http://www.w3.org/Graphics/SVG/1.1/DTD/svg11.dtd"><svg t="1505547626557" class="icon" style="" viewBox="0 0 1024 1024" version="1.1" xmlns="http://www.w3.org/2000/svg" p-id="2587" xmlns:xlink="http://www.w3.org/1999/xlink" width="200" height="200"><defs><style type="text/css"></style></defs><path d="M511.989767 1005.120038c-271.902147 0-493.109805-221.217892-493.109805-493.120038S240.08762 18.879962 511.989767 18.879962s493.130271 221.207659 493.130271 493.120038S783.871447 1005.120038 511.989767 1005.120038z m0-936.957748c-244.733421 0-443.83771 199.104289-443.83771 443.83771s199.114522 443.83771 443.83771 443.83771S955.786545 756.733421 955.786545 512 756.733421 68.16229 511.989767 68.16229z" fill="#e6e6e6" p-id="2588"></path><path d="M686.04357 710.7052a24.5593 24.5593 0 0 1-17.447335-7.224527l-156.770197-156.770196-156.463205 156.729264a24.630931 24.630931 0 1 1-34.792341-34.792341l156.698565-156.770196L320.52956 355.393532a24.651397 24.651397 0 1 1 34.863972-34.863972L512.13303 477.269057l156.463205-156.739497a24.630931 24.630931 0 1 1 34.792341 34.792341L546.700244 512.10233l156.759963 156.493905a24.66163 24.66163 0 0 1-17.396171 42.108965z" fill="#e6e6e6" p-id="2589"></path></svg>