<?xml version="1.0" standalone="no"?><!DOCTYPE svg PUBLIC "-//W3C//DTD SVG 1.1//EN" "http://www.w3.org/Graphics/SVG/1.1/DTD/svg11.dtd"><svg t="1505463110441" class="icon" style="" viewBox="0 0 1945 1024" version="1.1" xmlns="http://www.w3.org/2000/svg" p-id="8123" xmlns:xlink="http://www.w3.org/1999/xlink" width="379.8828125" height="200"><defs><style type="text/css"></style></defs><path d="M1843.2 972.8c-51.2 51.2-102.4 51.2-153.6 51.2s-102.4 0-153.6-51.2c-51.2 51.2-102.4 51.2-153.6 51.2s-102.4 0-153.6-51.2c-51.2 51.2-102.4 51.2-153.6 51.2s-102.4 0-153.6-51.2c-51.2 51.2-102.4 51.2-153.6 51.2s-102.4 0-153.6-51.2v-51.2h51.2c51.2 51.2 102.4 51.2 153.6 51.2s102.4 0 153.6-51.2c51.2 51.2 102.4 51.2 153.6 51.2s102.4 0 153.6-51.2c51.2 51.2 102.4 51.2 153.6 51.2s102.4 0 153.6-51.2c51.2 51.2 102.4 51.2 153.6 51.2s102.4 0 153.6-51.2h51.2v51.2z m-819.2-307.2c0 51.2-51.2 51.2-102.4 51.2s-51.2 51.2 0 51.2c102.4 0 204.8 0 204.8-102.4-102.4-51.2-153.6-51.2-153.6-51.2zM256 716.8c-102.4-51.2-204.8 0-256 102.4 0 51.2 0 51.2 51.2 51.2 51.2-51.2 102.4-51.2 153.6 0 51.2 0 102.4 51.2 153.6 102.4 0 51.2 51.2 51.2 51.2 0 0-102.4-51.2-204.8-153.6-256z m51.2-51.2H256c102.4-204.8 307.2-460.8 563.2-512 0-51.2-51.2-102.4-51.2-102.4-51.2 0 0-51.2 51.2-51.2 102.4 0 204.8 102.4 256 153.6 51.2 0 102.4 0 153.6 51.2 409.6 153.6 409.6 460.8 409.6 460.8s51.2 0 102.4 51.2c102.4 51.2 51.2 153.6-51.2 102.4-51.2 0-563.2-153.6-563.2-153.6-307.2-102.4-563.2-51.2-716.8 102.4z m1024-51.2h51.2v-51.2h-51.2-51.2v51.2z" p-id="8124" fill="#10AEFF"></path></svg>