<svg xmlns="http://www.w3.org/2000/svg" viewBox="0 0 144 24"><g fill="#EC7E2C"><path d="M12 1.336c-5.789 0-10.498 4.709-10.498 10.498s4.709 10.499 10.498 10.499 10.498-4.71 10.498-10.499-4.709-10.498-10.498-10.498zm0 19.997c-5.237 0-9.498-4.261-9.498-9.499 0-5.237 4.261-9.498 9.498-9.498s9.498 4.261 9.498 9.498c0 5.238-4.261 9.499-9.498 9.499zM16.074 6.851c-.185-.205-.502-.218-.707-.034l-3.497 3.179-3.162-3.162c-.196-.195-.512-.195-.708 0s-.195.512 0 .707l2.646 2.646h-2.233c-.276 0-.5.224-.5.5s.224.5.5.5h3.121l-.005.025v1.775h-3.116c-.276 0-.5.224-.5.5s.224.5.5.5h3.116v2.825c0 .276.224.5.5.5s.5-.224.5-.5v-2.825h3.116c.276 0 .5-.224.5-.5s-.224-.5-.5-.5h-3.116v-1.775l-.005-.025h3.121c.276 0 .5-.224.5-.5s-.224-.5-.5-.5h-2.498l2.893-2.63c.204-.185.219-.501.034-.706z"/></g><g fill="#F9708D"><path d="M45.765 7.358l-6.379 3.396-1.382-1.923c.864-.636 1.434-1.664 1.434-2.831 0-1.93-1.542-3.5-3.438-3.5s-3.438 1.57-3.438 3.5c0 1.086.498 2.045 1.263 2.688l-1.759 2.07-5.814-3.39-.743.526 2.607 13.606h15.768l2.607-13.606-.726-.536zm-12.203-1.358c0-1.378 1.093-2.5 2.438-2.5s2.438 1.122 2.438 2.5c0 .833-.403 1.567-1.016 2.022 0 0-.422.463-1.422.463-1.094 0-1.531-.555-1.531-.555-.548-.459-.907-1.149-.907-1.93zm9.496 14.5h-14.116l-2.244-11.714 5.588 3.258 2.391-2.814c.408.173.854.27 1.323.27.39 0 .758-.081 1.107-.203l1.977 2.75 6.228-3.315-2.254 11.768zM28.583 15.5h5.417v1h-5.417z"/></g><g fill="#2EBC88"><path d="M70.5 11.834c0-5.79-4.71-10.5-10.5-10.5s-10.5 4.71-10.5 10.5 4.71 10.5 10.5 10.5c1.29 0 2.521-.245 3.664-.673.683.419 1.478.673 2.336.673 2.481 0 4.5-2.019 4.5-4.5 0-.858-.254-1.653-.673-2.336.428-1.142.673-2.373.673-3.664zm-4.5 9.501c-1.93 0-3.5-1.57-3.5-3.5s1.57-3.5 3.5-3.5 3.5 1.57 3.5 3.5-1.57 3.5-3.5 3.5zm3.092-6.754c-.807-.767-1.892-1.246-3.092-1.246-2.481 0-4.5 2.019-4.5 4.5 0 1.199.479 2.284 1.246 3.092-.87.263-1.791.408-2.746.408-5.238 0-9.5-4.262-9.5-9.5s4.262-9.5 9.5-9.5 9.5 4.262 9.5 9.5c0 .955-.145 1.876-.408 2.746zM63.146 7.251l-3.146 3.147-3.146-3.147-.708.707 2.647 2.647h-2.293v1h3v1.23h-3v1h3v2.75h1v-2.75h3v-1h-3v-1.23h3v-1h-2.293l2.647-2.647m2.646 8.377h-1v2.5h2.5v-1h-1.5"/></g><path fill-rule="evenodd" clip-rule="evenodd" fill="#FA7C7B" d="M92.657 4.006c-.415-.258-1.775-1.006-3.595-1.006-.766 0-1.559.235-2.399.484-.856.254-1.743.516-2.601.516-.731 0-1.505-.255-2.252-.501-.743-.246-1.511-.499-2.248-.499-2.45 0-4.239 1.024-4.249 1.036-.721.291-1.813.729-1.813 1.964v13c0 1.103.897 2 2 2l.139-.001.119-.07c.016-.01 1.577-.929 3.68-.929.575 0 1.238.217 1.939.447.831.272 1.689.553 2.592.553.997 0 1.951-.282 2.874-.556.771-.229 1.5-.444 2.126-.444 1.877 0 3.236.904 3.25.913l.128.087h.153c1.103 0 2-.897 2-2v-13c0-1.05-.812-1.913-1.843-1.994zm-13.219 14.994c-2.034 0-3.591.744-4.056.993-.496-.058-.882-.481-.882-.993v-13c0-.434.267-.666 1.251-1.067.016-.01 1.642-.933 3.811-.933.575 0 1.235.218 1.935.448.648.213 1.314.427 2.003.511v15.004c-.599-.075-1.213-.271-1.812-.467-.779-.255-1.515-.496-2.25-.496zm14.062 0c0 .507-.38.928-.87.991-.446-.266-1.829-.991-3.661-.991-.771 0-1.567.235-2.41.485-.678.201-1.374.401-2.059.478v-14.992c.844-.066 1.658-.295 2.447-.529.769-.227 1.495-.442 2.115-.442 1.823 0 3.138.9 3.15.91l.131.09h.157c.552 0 1 .449 1 1v13z"/><g fill-rule="evenodd" clip-rule="evenodd" fill="#C777E4"><path d="M115.875 5.55h-14.641l-.163-1.36-.992.119 1.346 11.19c0 1.765 1.436 3.2 3.2 3.2h10.35v-1h-10.35c-1.213 0-2.2-.987-2.204-2.26l-.041-.339h12.297l.126-.084c.063-.042 1.562-1.056 2.426-2.904.791-1.696.939-4.13.946-4.261 0-1.269-1.031-2.301-2.3-2.301zm.447 6.138c-.611 1.31-1.62 2.152-1.959 2.411h-11.988l-.794-7.549h14.294c.717 0 1.3.583 1.301 1.271-.002.024-.143 2.344-.854 3.867zm-17.997-9.288h2.7v1h-2.7z"/><circle cx="104.276" cy="20.1" r="1"/><circle cx="111.925" cy="20.1" r="1"/></g><g fill-rule="evenodd" clip-rule="evenodd" fill="#75B4E0"><path d="M140.989 12.084c-.094-3.981-2.409-7.085-5.873-8.247-.24-1.509-1.54-2.67-3.116-2.67-1.594 0-2.903 1.188-3.121 2.722-3.291 1.208-5.586 4.306-5.846 8.203-.613.342-1.033.989-1.033 1.741 0 1.105.895 2 2 2l.068-.008c.491 3.944 3.857 7.008 7.932 7.008 4.077 0 7.446-3.068 7.933-7.016l.137.016c1.066 0 1.93-.895 1.93-2 0-.758-.412-1.41-1.011-1.749zm-8.989-9.917c.912 0 1.691.569 2.01 1.369-.641-.13-1.311-.203-2.01-.203-.699 0-1.372.082-2.017.227.313-.813 1.096-1.393 2.017-1.393zm7.176 10.314c-.887-.734-2.215-1.241-4.593-1.641-3.556-.597-4.575-3.083-4.617-3.189l-.933.361c.049.127 1.244 3.118 5.384 3.814 2.964.498 4.032 1.148 4.688 2.021 0 .361-.008.695.016.986h-.121l-.012.231c-2.676 3.118-5.852 3.264-6.004 3.269l.002.058c-.153-.035-.315-.058-.486-.058-.828 0-1.5.448-1.5 1s.672 1 1.5 1 1.5-.448 1.5-1l-.02-.129c1.091-.219 2.943-.825 4.745-2.45-.838 2.928-3.533 5.079-6.726 5.079-3.859 0-7-3.141-7-7h-.017c.025-.295.017-.634.017-1 0-.385.01-.742-.02-1.047l.206.511c.075-.03 1.867-.766 3.711-3.159l-.793-.61c-1.489 1.934-2.927 2.673-3.226 2.812-.12-.3-.358-.487-.827-.501.422-4.404 3.633-7.505 7.95-7.505 4.47 0 7.748 3.131 7.978 7.511-.488.028-.709.265-.802.636zM128 14.333c0 .828.672 1.5 1.5 1.5s1.5-.672 1.5-1.5c0 .276-.224.5-.5.5s-.5-.224-.5-.5.224-.5.5-.5.5.224.5.5c0-.828-.672-1.5-1.5-1.5s-1.5.671-1.5 1.5zm7 1.5c.828 0 1.5-.672 1.5-1.5 0 .276-.224.5-.5.5s-.5-.224-.5-.5.224-.5.5-.5.5.224.5.5c0-.828-.672-1.5-1.5-1.5s-1.5.672-1.5 1.5.672 1.5 1.5 1.5z"/></g></svg>